:SAMPLES-PER-SECOND 30
:FULLY-SPECIFIED
:DEGREES
220
root  35.17010306 36.46763178 -14.94074093 8.871151924 -10.27071953 5.525700569
lowerback  -7.011250019 -1.663419962 -0.6433870196
upperback  -3.567529917 -1.703860044 -4.546120167
thorax  0.1242429987 -0.6974519491 -4.458720207
lowerneck  1.596029997 -18.89019966 -12.32279968
upperneck  4.017590046 -26.09090042 13.96790028
head  4.37582016 -12.8423996 4.439730167
lclavicle  0 -4.497500157e-015 -2.743230041e-014
lhumerus  -48.70890045 26.98410034 61.89609909
lradius  5.228657756e-007 -6.507048965e-006 30.52770233
lwrist  4.824992743e-007 -3.790274832e-007 -28.27400017
lhand  -4.437294816e-031 -37.27069855 -10.64210033
lfingers  90 7.125020027 -90
lthumb  94.98254316 -25.46518956 101.4622172
rclavicle  0 -4.497500157e-015 -2.743230041e-014
rhumerus  -6.256542206 -43.29069901 5.274264336
rradius  -5.16745672e-007 2.214343908e-008 43.23820114
rwrist  -0.0001064338358 0.02974390797 -167.5809937
rhand  -1.770691619e-031 4.36206007 -7.483320236
rfingers  -90 -7.125020027 -90
rthumb  -85.05548036 -8.571896007 -59.86791121
rfemur  -14.90304947 16.441185 9.644761086
rtibia  -1.938235521 -3.253968239 22.65568542
rfoot  0.1612636298 -24.7592411 -31.95521736
rtoes  3.864866905 19.63803791 -101.3659461
lfemur  -9.559376717 -18.19523811 -23.25003433
ltibia  2.542981625 -4.255187035 16.02684593
lfoot  1.73765564 -18.59599304 41.26457977
ltoes  -8.66697179 -18.09423329 -116.1415916
221
root  35.16949631 36.46591367 -14.94220073 8.872645378 -10.26510811 5.510596275
lowerback  -7.02782011 -1.672909975 -0.7022244334
upperback  -3.557179928 -1.713909984 -4.517549992
thorax  0.1463589966 -0.6972200871 -4.396709919
lowerneck  1.517840028 -18.81399918 -12.28009987
upperneck  4.088880062 -25.97900009 13.86540031
head  4.376029968 -12.78569984 4.412360191
lclavicle  0 -4.497500157e-015 -2.743230041e-014
lhumerus  -48.70640182 27.03199959 61.92440033
lradius  5.228657756e-007 -6.507048965e-006 30.54980087
lwrist  4.824992743e-007 -3.790274832e-007 -28.25720024
lhand  -0 -37.25329971 -10.63650036
lfingers  90 7.125020027 -90
lthumb  94.97321377 -25.46036688 101.4431855
rclavicle  0 -4.497500157e-015 -2.743230041e-014
rhumerus  -6.539990902 -43.82369995 5.143241882
rradius  -5.16745672e-007 2.214343908e-008 43.70080185
rwrist  -0.0001064338358 0.02974390797 -167.8589935
rhand  -1.770786731e-031 4.402219772 -7.467299938
rfingers  -90 -7.125020027 -90
rthumb  -85.03814071 -8.588304392 -59.8275929
rfemur  -14.89407825 16.43275452 9.653739929
rtibia  -1.93133831 -3.263381958 22.63061142
rfoot  0.1798761785 -24.77919197 -31.92726707
rtoes  3.836736516 19.64334348 -101.2822547
lfemur  -9.60858345 -18.19805908 -23.21167374
ltibia  2.500371456 -4.256459236 16.09314919
lfoot  1.723016143 -18.62499046 41.22725296
ltoes  -8.663999644 -18.09561957 -116.1320223
222
root  35.16806655 36.46482332 -14.94311235 8.859984398 -10.23763466 5.504393578
lowerback  -7.010529518 -1.663840055 -0.649052918
upperback  -3.579570055 -1.70393002 -4.539209843
thorax  0.1118090004 -0.699582994 -4.44810009
lowerneck  1.463790059 -18.75429916 -12.23849964
upperneck  4.19990015 -25.89590073 13.77639961
head  4.39041996 -12.74209976 4.385340214
lclavicle  0 -4.497500157e-015 -2.743230041e-014
lhumerus  -48.72840118 27.23410034 61.83549881
lradius  5.228657756e-007 -6.507048965e-006 30.52160072
lwrist  4.824992743e-007 -3.790274832e-007 -28.46039963
lhand  -0 -37.23020172 -10.63659954
lfingers  90 7.125020027 -90
lthumb  94.96241608 -25.46131841 101.4184844
rclavicle  0 -4.497500157e-015 -2.743230041e-014
rhumerus  -6.966851711 -44.12540054 5.066493511
rradius  -5.16745672e-007 2.214343908e-008 44.23049927
rwrist  -0.0001064338358 0.02974390797 -168.0140076
rhand  -1.770724771e-031 4.376100063 -7.50936985
rfingers  -90 -7.125020027 -90
rthumb  -85.06550427 -8.550245295 -59.8562009
rfemur  -14.88844013 16.41248894 9.671878815
rtibia  -1.928909302 -3.243465424 22.65206718
rfoot  0.1734572202 -24.75901222 -31.93047142
rtoes  3.83755572 19.64318954 -101.2846916
lfemur  -9.594334602 -18.18720627 -23.20363235
ltibia  2.492494822 -4.255139351 16.07949066
lfoot  1.679641008 -18.60355568 41.14754486
ltoes  -8.65149572 -18.10144517 -116.0917717
223
root  35.16723152 36.46422859 -14.9438017 8.84822464 -10.22270298 5.488348484
lowerback  -7.021830082 -1.682350039 -0.7319810987
upperback  -3.577150106 -1.724830031 -4.500440121
thorax  0.1232109964 -0.7090960145 -4.362249851
lowerneck  1.314200044 -18.67000008 -12.17280006
upperneck  4.347119808 -25.76959991 13.61060047
head  4.411930084 -12.67500019 4.329949856
lclavicle  0 -4.497500157e-015 -2.743230041e-014
lhumerus  -48.74029922 27.4552002 61.77460098
lradius  5.228657756e-007 -6.507048965e-006 30.46520042
lwrist  4.824992743e-007 -3.790274832e-007 -28.62220001
lhand  -4.433634775e-031 -37.20849991 -10.68550014
lfingers  90 7.125020027 -90
lthumb  94.96296558 -25.50998002 101.3999255
rclavicle  0 -4.497500157e-015 -2.743230041e-014
rhumerus  -7.296220303 -44.35829926 4.977720737
rradius  -5.16745672e-007 2.214343908e-008 44.76720047
rwrist  -0.0001064338358 0.02974390797 -168.3439941
rhand  -1.770893344e-031 4.446800232 -7.493040085
rfingers  -90 -7.125020027 -90
rthumb  -85.04094474 -8.56897586 -59.7860468
rfemur  -14.87729549 16.48508835 9.703347206
rtibia  -1.928235054 -3.168487072 22.66778564
rfoot  0.157628268 -24.6288662 -32.03330994
rtoes  3.84485621 19.6418162 -101.3064096
lfemur  -9.520486832 -18.12668037 -23.20241928
ltibia  2.524610758 -4.195421696 15.99794769
lfoot  1.704906464 -18.67847061 41.20633698
ltoes  -8.647520468 -18.10329503 -116.0789779
224
root  35.16613517 36.4639883 -14.94440694 8.838057518 -10.20122623 5.483203888
lowerback  -7.008009434 -1.667659998 -0.7227922082
upperback  -3.590470076 -1.705129981 -4.511330128
thorax  0.1024919972 -0.6990209818 -4.376949787
lowerneck  1.21807003 -18.59189987 -12.09329987
upperneck  4.482269764 -25.65740013 13.49670029
head  4.42896986 -12.61489964 4.290989876
lclavicle  0 -4.497500157e-015 -2.743230041e-014
lhumerus  -48.69910049 27.50670052 61.73720169
lradius  5.228657756e-007 -6.507048965e-006 30.39800072
lwrist  4.824992743e-007 -3.790274832e-007 -28.67889977
lhand  -4.434481161e-031 -37.22290039 -10.67010021
lfingers  90 7.125020027 -90
lthumb  94.9663501 -25.49436754 101.4138811
rclavicle  0 -4.497500157e-015 -2.743230041e-014
rhumerus  -7.855760098 -44.53290176 4.997389317
rradius  -5.16745672e-007 2.214343908e-008 45.41040039
rwrist  -0.0001064338358 0.02974390797 -168.5749969
rhand  -1.77083316e-031 4.421689987 -7.504950047
rfingers  -90 -7.125020027 -90
rthumb  -85.0527867 -8.5570461 -59.81145403
rfemur  -14.87192917 16.50663567 9.713504791
rtibia  -1.926440001 -3.149032354 22.68564606
rfoot  0.1365509182 -24.61212158 -32.08781052
rtoes  3.84695699 19.64142051 -101.3126594
lfemur  -9.446002007 -18.09205055 -23.21313477
ltibia  2.56419301 -4.146249294 15.90375042
lfoot  1.72156918 -18.72281647 41.26050186
ltoes  -8.671783709 -18.09198763 -116.1570858
225
root  35.16454021 36.46416251 -14.94490406 8.832928658 -10.16825485 5.47279644
lowerback  -7.011260033 -1.663800001 -0.7440544367
upperback  -3.58378005 -1.698959947 -4.504179955
thorax  0.1126139984 -0.6957010031 -4.357160091
lowerneck  1.004920006 -18.48259926 -11.97500038
upperneck  4.675479889 -25.49399948 13.31639957
head  4.462230206 -12.52499962 4.222720146
lclavicle  0 -4.497500157e-015 -2.743230041e-014
lhumerus  -48.66730118 27.73180008 61.6216011
lradius  5.228657756e-007 -6.507048965e-006 30.28650093
lwrist  4.824992743e-007 -3.790274832e-007 -28.90029907
lhand  -4.430770962e-031 -37.15969849 -10.68480015
lfingers  90 7.125020027 -90
lthumb  94.93991806 -25.51110583 101.34765
rclavicle  0 -4.497500157e-015 -2.743230041e-014
rhumerus  -8.390720367 -44.47069931 5.060661793
rradius  -5.16745672e-007 2.214343908e-008 46.01480103
rwrist  -0.0001064338358 0.02974390797 -168.7680054
rhand  -1.770769164e-031 4.394830227 -7.431000233
rfingers  -90 -7.125020027 -90
rthumb  -85.02135534 -8.61925524 -59.83197697
rfemur  -14.85813808 16.5121994 9.730036736
rtibia  -1.921444654 -3.142598629 22.68535614
rfoot  0.1320076734 -24.61858368 -32.109478
rtoes  3.832712048 19.64409921 -101.2702832
lfemur  -9.437051773 -18.12524223 -23.19874001
ltibia  2.557610273 -4.129383087 15.89598656
lfoot  1.701218247 -18.74523544 41.24105835
ltoes  -8.681632681 -18.08738637 -116.188805
226
root  35.16304437 36.46393123 -14.94554985 8.813631058 -10.13613892 5.445633888
lowerback  -6.991749763 -1.648110032 -0.7285836339
upperback  -3.610879898 -1.677060008 -4.525979996
thorax  0.07407850027 -0.6841229796 -4.386419773
lowerneck  0.8814880252 -18.36610031 -11.93760014
upperneck  4.868740082 -25.33569908 13.2446003
head  4.507359982 -12.43869972 4.199590206
lclavicle  0 -4.497500157e-015 -2.743230041e-014
lhumerus  -48.66719818 27.82550049 61.54899979
lradius  5.228657756e-007 -6.507048965e-006 30.23019981
lwrist  4.824992743e-007 -3.790274832e-007 -29.06299973
lhand  -0 -37.13899994 -10.70250034
lfingers  90 7.125020027 -90
lthumb  94.93404325 -25.52919997 101.3271377
rclavicle  0 -4.497500157e-015 -2.743230041e-014
rhumerus  -9.00012207 -44.60559464 5.09975338
rradius  -5.16745672e-007 2.214343908e-008 46.71509933
rwrist  -0.0001064338358 0.02974390797 -169.0330048
rhand  -1.770694731e-031 4.363379955 -7.394499779
rfingers  -90 -7.125020027 -90
rthumb  -85.01009337 -8.648751005 -59.85983484
rfemur  -14.80791187 16.48956299 9.771696091
rtibia  -1.906989813 -3.126895666 22.65130043
rfoot  0.1510480046 -24.61447334 -32.10357666
rtoes  3.841579963 19.64243285 -101.296663
lfemur  -9.452602386 -18.14863777 -23.15114403
ltibia  2.518246889 -4.1288414 15.95642281
lfoot  1.676992774 -18.76555824 41.1830101
ltoes  -8.667908231 -18.09379639 -116.1446068
